# xmcd
# Copyright (C) 1995-1998 Ti Kan
#
# Track frame offsets:
#       150
#       12837
#       31612
#       49875
#       65085
#       81687
#       93690
#       107730
#       127135
#       134925
#       150975
#       166560
#       175575
#
# Disc length: 2535 seconds
#
# Revision: 0
# Processed by: cddbd v1.5.2PL0 Copyright (c) Steve Scherf et al.
# Submitted via: CD-Import v1.0
#
DISCID=ad09e50d
DTITLE=Piggnigg - Nüt
DYEAR=03
DGENRE=
TTITLE0=Schlamm
TTITLE1=Mexico
TTITLE2=Böni
TTITLE3=Goldfisch
TTITLE4=Pfirma
TTITLE5=Nüt
TTITLE6=Apero
TTITLE7=Hund
TTITLE8=Ziit
TTITLE9=Lisa
TTITLE10=Charä
TTITLE11=Missverständnis
TTITLE12=Böni Nr. 9
EXTD=
EXTT0=
EXTT1=
EXTT2=
EXTT3=
EXTT4=
EXTT5=
EXTT6=
EXTT7=
EXTT8=
EXTT9=
EXTT10=
EXTT11=
EXTT12=
PLAYORDER=
